<svg width="132" height="106" viewBox="0 0 132 106" fill="none" xmlns="http://www.w3.org/2000/svg">
<path d="M43.0361 0.856456C46.5098 -1.26046 51.0294 0.739069 51.7998 4.73341C51.9383 5.45182 51.8611 6.76417 51.7061 9.38868C51.6367 10.5618 51.6022 11.1487 51.6553 11.6358C51.9381 14.2292 53.9082 16.3196 56.4805 16.7549C56.9636 16.8366 57.5514 16.8369 58.7266 16.8369H74.7754C75.9504 16.8369 76.5384 16.8366 77.0215 16.7549C79.5938 16.3196 81.5639 14.2292 81.8467 11.6358C81.8998 11.1487 81.8652 10.5617 81.7959 9.38868C81.6408 6.76433 81.5636 5.45174 81.7021 4.73341C82.4727 0.739111 86.9922 -1.25972 90.4658 0.857432C91.0905 1.23818 92.0092 2.17837 93.8467 4.0586L108.646 19.2031C109.309 19.8813 109.641 20.2199 109.982 20.4795C110.324 20.7392 110.846 21.0271 111.892 21.6025C122.538 27.464 130.088 38.2029 131.571 50.8526C131.833 53.087 131.833 55.7448 131.833 61.0596C131.833 66.3743 131.833 69.0322 131.571 71.2666C129.494 88.9767 115.527 102.944 97.8174 105.021C95.583 105.283 92.925 105.282 87.6104 105.282H44.2227C38.9077 105.282 36.2501 105.283 34.0156 105.021C16.3055 102.944 2.3388 88.9767 0.261719 71.2666C-0.000323287 69.0322 -5.79957e-09 66.3743 2.01618e-09 61.0596C2.01618e-09 55.7448 -0.000304733 53.087 0.261719 50.8526C1.85302 37.2837 10.4243 25.9134 22.3105 20.4033C23.6548 19.7802 24.3275 19.4684 24.7607 19.1621C25.194 18.8558 25.606 18.4346 26.4287 17.5928L39.6553 4.0586C41.4929 2.17821 42.4114 1.23722 43.0361 0.856456ZM105 51.6152C99.8453 51.6152 95.667 55.7946 95.667 60.9492C95.6667 68.0367 89.9205 73.7822 82.833 73.7822H49C41.9125 73.7822 36.1673 68.0367 36.167 60.9492C36.167 55.7946 31.9877 51.6152 26.833 51.6152C21.6785 51.6154 17.5 55.7947 17.5 60.9492C17.5003 78.346 31.6032 92.4492 49 92.4492H82.833C100.23 92.4492 114.333 78.346 114.333 60.9492C114.333 55.7946 110.155 51.6152 105 51.6152Z" fill="#FF4400"/>
</svg>
